<?xml version="1.0" standalone="no"?>
<!DOCTYPE svg PUBLIC "-//W3C//DTD SVG 1.1//EN" "http://www.w3.org/Graphics/SVG/1.1/DTD/svg11.dtd" >
<svg xmlns="http://www.w3.org/2000/svg" xmlns:xlink="http://www.w3.org/1999/xlink" version="1.1"  >
<metadata>
Created by FontForge 20201107 at Sat Sep 24 10:07:08 2022
 By Unknown
Created by iconfont
</metadata>
<defs>
<font id="iconfont" horiz-adv-x="1024" >
  <font-face 
    font-family="iconfont"
    font-weight="400"
    font-stretch="normal"
    units-per-em="1024"
    panose-1="2 0 5 3 0 0 0 0 0 0"
    ascent="896"
    descent="-128"
    bbox="0 -128 1058 896"
    underline-thickness="0"
    underline-position="10"
    unicode-range="U+E600-EED0"
	
  />
<missing-glyph 
 />
    <glyph glyph-name=".notdef" 
 />
    <glyph glyph-name="xihuan" unicode="&#xe73c;" horiz-adv-x="1070" 
d="M537 738l-45 29q-63 41 -138 43.5t-141 -33.5t-104.5 -100.5t-38.5 -139.5q0 -121 99 -258t297 -292q31 -24 70.5 -24t70.5 24q198 155 297 292t99 258q0 75 -38 139t-103 100t-139.5 34t-137.5 -42zM567 39q-14 -10 -30.5 -10t-30.5 10q-185 145 -277.5 270t-92.5 228
q0 57 29 106.5t79 76.5t107 25t105 -33l80 -52l84 53q48 30 104.5 31.5t106 -26t78 -76t28.5 -105.5q0 -103 -92.5 -228t-277.5 -270z" />
    <glyph glyph-name="wenjianjia" unicode="&#xe74d;" horiz-adv-x="1072" 
d="M492 693h209q37 0 62.5 -25.5t25.5 -62.5q0 -9 4.5 -16.5t12 -11.5t16 -4t16 4t12 11.5t4.5 16.5q0 41 -20.5 76.5t-55.5 56t-77 20.5h-209q-9 0 -16.5 -4.5t-11.5 -12t-4 -16t4 -16t11.5 -12t16.5 -4.5zM554 637l-71 143q-4 8 -11.5 12.5t-16 5t-16 -3t-12.5 -11
t-5.5 -16t3.5 -16.5l74 -149q7 -14 19.5 -21.5t27.5 -7.5h267q37 0 63 -26t26 -63v-321q0 -13 9.5 -22.5t22.5 -9.5t22.5 9.5t9.5 22.5v321q0 42 -20.5 77t-55.5 55.5t-77 20.5h-259zM902 364v-241q0 -37 -26 -63t-63 -26h-562q-37 0 -63 26t-26 63v522q0 37 26 63t63 26
h203q13 0 22.5 9t9.5 22.5t-9.5 23t-22.5 9.5h-203q-42 0 -77 -20.5t-55.5 -55.5t-20.5 -77v-522q0 -42 20.5 -77t55.5 -55.5t77 -20.5h562q42 0 77 20.5t55.5 55.5t20.5 77v241q0 13 -9.5 22.5t-22.5 9.5t-22.5 -9.5t-9.5 -22.5z" />
    <glyph glyph-name="tupian" unicode="&#xe74e;" horiz-adv-x="1185" 
d="M1058 284v-144q0 -46 -22.5 -85t-61.5 -61.5t-85 -22.5h-621q-46 0 -85 22.5t-61.5 61.5t-22.5 85v488q0 46 22.5 85t61.5 61.5t85 22.5h621q46 0 85 -22.5t61.5 -61.5t22.5 -85v-344zM987 339v289q0 27 -13 49.5t-35.5 35.5t-49.5 13h-621q-27 0 -49.5 -13t-35.5 -35.5
t-13 -49.5v-488q0 -27 13 -49.5t35.5 -35.5t49.5 -13h74l331 324q38 38 90 46.5t100 -14.5zM987 261l-154 73q-28 13 -58.5 8t-52.5 -26l-278 -274h445q27 0 49.5 13t35.5 35.5t13 49.5v121zM357 371q33 0 61.5 16.5t45.5 45t17 62.5t-17 62.5t-45.5 45t-62 16.5t-62 -16.5
t-45.5 -45t-17 -62.5t17 -62.5t45.5 -45t62.5 -16.5zM357 442q-23 0 -38.5 15.5t-15.5 37.5t15.5 37.5t38 15.5t38 -15.5t15.5 -37.5t-15.5 -37.5t-37.5 -15.5z" />
    <glyph glyph-name="add_light" unicode="&#xe7dc;" 
d="M986 421h-442v440q0 14 -9 22.5t-23 8.5t-23 -8.5t-9 -22.5v-440l-442 3q-15 0 -23.5 -8.5t-8.5 -23t8.5 -23t23.5 -8.5l442 -3v-443q0 -14 9 -23t23 -9t23 9t9 23v443h442q15 0 23.5 8.5t8.5 22.5q0 12 -10 22t-22 10z" />
    <glyph glyph-name="back_android_light" unicode="&#xe7ee;" 
d="M984 418h-862l384 377q10 10 10 23.5t-10 23.5t-23.5 10t-23.5 -10l-438 -434q-10 -11 -10 -24t10 -24h2q2 -1 2 -3l434 -438q5 -5 11.5 -7.5t12.5 -2.5q13 0 23 10t10 23.5t-10 23.5l-380 384h858q16 0 25 9.5t9 24.5t-9 24.5t-25 9.5z" />
    <glyph glyph-name="refresh" unicode="&#xe680;" 
d="M934 689q-12 3 -23.5 -4t-14.5 -19l-23 -88q-57 102 -157.5 162t-218.5 60q-114 0 -213 -57q-95 -55 -151 -149q-58 -97 -58 -210t58 -210q56 -94 151 -149q99 -57 213 -57q89 0 169 34.5t140 97t90 143.5q5 13 -0.5 24.5t-18.5 16t-24.5 -1t-16.5 -17.5
q-25 -69 -76 -122t-119.5 -82t-143.5 -29q-97 0 -181 48q-81 47 -129 126q-48 82 -48 177.5t49 178.5q48 79 129 126q83 48 180 48q72 0 138 -27t116 -76.5t77 -114.5l-128 37q-13 3 -24 -4t-14.5 -20t3.5 -24t20 -14l194 -51q5 0 13 3l4 1q12 8 15 19l49 186q0 13 -6.5 24
t-19.5 14z" />
    <glyph glyph-name="bell" unicode="&#xe650;" 
d="M601 26q0 -37 -26 -63t-63 -26t-63 26t-26 63h178zM512 831q19 0 32 -13t13 -31v-49q63 -10 114 -48t80 -94.5t29 -122.5v-268l135 -134h-806l135 134v268q0 66 29 122.5t80 94.5t114 48v49q0 18 13 31t32 13z" />
    <glyph glyph-name="earth" unicode="&#xe70d;" 
d="M807 115q-10 30 -36 49.5t-59 19.5h-50v150q0 21 -14.5 35.5t-35.5 14.5h-300v100h100q21 0 35.5 14.5t14.5 35.5v100h100q20 0 38.5 7.5t32.5 21.5t21.5 32.5t7.5 38.5v20q91 -37 154.5 -111.5t85 -170t-3.5 -190.5t-91 -167zM462 -12q-98 12 -177.5 67.5t-125.5 140.5
q-47 88 -47 188q0 43 11 89l239 -239v-50q0 -20 7.5 -38t21.5 -32t32.5 -22t38.5 -8v-96zM512 883q-102 0 -194 -39q-90 -38 -159 -107t-107 -159q-39 -92 -39 -194q0 -99 38 -191t108 -162t162 -108t191 -38q102 0 194 39q90 38 159 107t107 159q39 92 39 194t-39 194
q-38 90 -107 159t-159 107q-92 39 -194 39z" />
    <glyph glyph-name="magi-icon" unicode="&#xe603;" 
d="M819 -128q56 0 103 27.5t74.5 74.5t27.5 103v614q0 56 -27.5 103t-74.5 74.5t-103 27.5h-614q-56 0 -103 -27.5t-74.5 -74.5t-27.5 -103v-614q0 -56 27.5 -103t74.5 -74.5t103 -27.5h614zM656 386l-105 106q-18 19 -18 40q1 19 15 33t34 15.5t37 -15.5l193 -192
q15 -16 14 -36.5t-14.5 -35t-30.5 -14.5h-535q-23 0 -36 15t-13 35t13 35t36 14h410z" />
    <glyph glyph-name="fsou-logo" unicode="&#xe601;" 
d="M739 888q42 0 58 -16.5t16 -56.5v-62q0 -39 -17 -56.5t-57 -17.5h-93q-83 0 -127 -18q-45 -19 -65 -65q-18 -43 -18 -127v-20h229q40 0 57 -17.5t17 -56.5v-31q0 -39 -17 -56.5t-57 -17.5h-229v-313q0 -40 -17 -57t-57 -17h-61q-40 0 -59.5 19t-14.5 55v512q0 157 40 247
q41 92 133 133q89 39 246 39h94h-1z" />
    <glyph glyph-name="weibiaoti-3" unicode="&#xe602;" 
d="M457 -65q-122 0 -227 61q-101 60 -161 161q-61 105 -61 227t61 227q60 101 161 161q105 61 227 61t227 -61q101 -60 161 -161q61 -105 61 -227t-61 -227q-60 -101 -161 -161q-105 -61 -227 -61zM457 689q-83 0 -154 -42q-69 -40 -109 -109q-42 -71 -42 -154t42 -154
q40 -69 109 -109q71 -42 154 -42t154 42q69 40 109 109q42 71 42 154t-42 154q-40 69 -109 109q-71 42 -154 42zM944 42zM872 42q0 -30 21 -51.5t51 -21.5t51 21.5t21 51t-21 51t-51 21.5t-51 -21.5t-21 -50.5zM512 -91v0v0v0z" />
    <glyph glyph-name="yandex-international" unicode="&#xe600;" 
d="M451 -128v332l-222 596h112l163 -459l188 555h103l-241 -696v-328h-103z" />
    <glyph glyph-name="duckduckgo" unicode="&#xeb82;" 
d="M512 896q-104 0 -199 -40q-92 -39 -163 -110t-110 -163q-40 -95 -40 -199t40 -199q39 -92 110 -163t163 -110q95 -40 199 -40t199 40q92 39 163 110t110 163q40 95 40 199t-40 199q-39 92 -110 163t-163 110q-95 40 -199 40zM512 -85q-127 0 -237 64q-106 62 -168 168
q-64 110 -64 237t64 237q62 106 168 168q110 64 237 64t237 -64q106 -62 168 -168q64 -110 64 -237t-64 -237q-62 -106 -168 -168q-110 -64 -237 -64zM948 384q0 -101 -44 -191q-42 -86 -117.5 -147.5t-170.5 -84.5l-32 61q81 -31 94 -26q8 3 9.5 36.5t-2.5 65.5
q-4 34 -13 36t-43 -19q-21 -13 -48 -32l1 -7q3 -15 4 -29q1 -17 -3 -24v-1q-1 -2 -3 -4q-9 -6 -29.5 -8.5t-34.5 0.5l-2 1q-33 -18 -56 -29q-34 -16 -40 -12q-10 5 -14 63q-3 49 -1 77q1 13 41 -1q26 -9 64 -28q5 5 16.5 8.5t25.5 4.5q-21 50 -29 92q-10 50 -3 83v0
q9 -5 39 -16q33 -11 66 -19q39 -9 63 -8.5t55.5 9.5t50.5 22q21 13 17 25q-3 8 -19 7q-10 -1 -40 -7q-35 -9 -55 -11q-34 -5 -63.5 -2.5t-46.5 11.5q-15 9 -18 20.5t5 22.5q6 9 17 11q6 1 23.5 -2t27.5 -3q18 0 35 5q40 12 87 30t68 30q28 16 20 28q-7 10 -32 13.5t-36 -1.5
q-25 -11 -124 -35q9 31 0 77q-9 42 -29.5 83.5t-45.5 65.5q-22 23 -68 32q-16 22 -52 41t-75 25.5t-79 -0.5h-2v0l-15 -4q4 -1 29 -12l16 -6l-12 -4q-9 -2 -13.5 -3.5t-9 -3.5t-8.5 -9t-4 -12q29 3 63 0q37 -3 64 -11q-43 -6 -70 -20l-9 -4q-44 -23 -62 -73.5t-7 -115.5
q11 -62 78 -376l20 -96q-85 30 -151 91t-102 142q-38 85 -38 178q0 118 60 220q57 99 156 156q102 60 220 60t220 -60q99 -57 156 -156q60 -102 60 -220zM388 487q-13 0 -22.5 -9.5t-9.5 -23t9.5 -22.5t22.5 -9t22.5 9t9.5 22.5t-9.5 23t-22.5 9.5zM402 457q-4 0 -6.5 4.5
t0 8.5t6.5 4t6.5 -2.5t2.5 -6t-2.5 -6t-6.5 -2.5zM604 502q-8 0 -14.5 -3.5t-10.5 -10t-4 -14.5t4 -14.5t10.5 -10t14.5 -3.5q12 0 20 8.5t8 20t-8 19.5t-20 8zM616 476q-3 0 -5 2t-2 5t2 5t5 2t5.5 -2t2.5 -5t-2.5 -5t-5.5 -2zM397 548q-3 2 -7 3q-9 2 -18 1
q-12 -1 -22.5 -7.5t-16.5 -14.5q-4 -5 -6 -11v-4l-2 7q-2 10 2 17q6 11 20.5 17t27.5 4q10 -1 17 -6zM621 551q-5 2 -11 5q-12 5 -20 4q-18 0 -29 -6q-5 -3 -7 -6v0l3 7q4 8 11 13q11 6 26 3q19 -3 27 -20z" />
    <glyph glyph-name="sogou" unicode="&#xeca8;" 
d="M717 -74l42 -54q102 44 173 122l-40 56q-72 -84 -175 -124v0zM512 -51q-121 0 -225 60q-101 58 -160 158q-61 103 -61 223t61 223q59 99 160 158q104 60 225 60t225 -61q101 -58 160 -158q61 -103 61 -223q0 -80 -28 -155q-28 -72 -79 -130l40 -54q63 69 97 154
q36 89 36 185q0 104 -40 198q-39 91 -110 161t-163 108q-95 40 -199 40t-199 -40q-92 -38 -163 -108t-110 -161q-40 -94 -40 -197t40 -197q39 -91 110 -161t163 -109q95 -39 199 -39q108 0 205 42l-41 54q-82 -31 -164 -31zM768 356q-37 31 -90 54q-31 15 -98 37
q-50 17 -74 27q-41 16 -71 34q-15 10 -14.5 24t12.5 25t28 12q49 8 104 2q46 -6 102 -22q34 -10 100 -34l30 -10l7 113q-111 40 -208 56q-115 18 -215 2q-46 -12 -75 -24q-39 -17 -63.5 -42.5t-30.5 -61t6.5 -69.5t40.5 -54q37 -29 89 -52q32 -13 97 -35q48 -16 71 -25
q39 -15 68 -31q20 -8 23 -25.5t-8.5 -33t-30.5 -17.5q-85 -16 -184 14q-73 22 -172 76v-4q-2 -83 -2 -124q106 -47 213 -64q115 -18 222 -2q43 9 74 21q39 16 64 41.5t32.5 62.5t-4.5 73t-42 56h-1z" />
    <glyph glyph-name="search1" unicode="&#xe67e;" 
d="M945 -2l-190 190q42 48 65 110.5t23 130.5q0 100 -52 188q-49 84 -134 134q-87 51 -187.5 51t-187.5 -52q-85 -50 -135 -135q-51 -88 -51 -188.5t51 -187.5q50 -85 135 -134q87 -52 187 -52q67 0 130 24q60 22 111 64l190 -190q9 -9 24 -9t23 9q7 10 6.5 23.5t-8.5 23.5z
M469 117q-84 0 -156 43q-70 41 -111 111q-42 72 -42 156t42 156q41 70 111 111q72 42 156 42t156 -42q70 -41 111 -111q43 -72 43 -156t-43 -156q-41 -70 -111 -111q-72 -43 -156 -43z" />
    <glyph glyph-name="yixiangkan" unicode="&#xe8bf;" 
d="M356 779q44 0 80 -17q33 -15 76 -51q44 36 77 51q36 17 79 17q93 0 158 -54q63 -53 90 -149q3 -8 0.5 -16.5t-8.5 -14.5t-14 -8.5t-16.5 -0.5t-14.5 8t-8 14q-22 76 -69 116.5t-118 40.5q-31 0 -56 -12.5t-61 -43.5l-18 -15q-9 -8 -21 -8t-21 8l-18 15q-36 31 -61 43.5
t-56 12.5q-62 0 -109 -31.5t-72.5 -87.5t-25.5 -128q0 -84 86 -187t258 -222q8 -6 18.5 -6t18.5 6q71 51 94 69q11 8 24 6t21 -12.5t6.5 -23.5t-11.5 -21q-25 -19 -97 -70q-25 -18 -55.5 -18t-55.5 18q-185 128 -278 243t-93 218q0 89 33.5 159.5t94.5 110.5q62 41 143 41z
M744 223q-13 0 -23 9l-93 88q-9 9 -9 21.5t9 21.5l1 1q10 9 22.5 9t21.5 -9l71 -67l140 132q10 9 22.5 9t21.5 -9l1 -1q10 -8 10 -21t-10 -22l-162 -153q-10 -9 -23 -9z" />
    <glyph glyph-name="aixin" unicode="&#xe8ab;" 
d="M668 779q81 0 143 -41q61 -40 94.5 -110.5t33.5 -159.5q0 -103 -93 -217.5t-279 -243.5q-25 -18 -55 -18t-55 18q-186 129 -279 243.5t-93 217.5q0 89 33.5 159.5t94.5 110.5q62 41 143 41q44 0 80 -17q33 -15 76 -51q43 36 76 51q36 17 80 17zM668 716q-31 0 -56 -12.5
t-61 -43.5l-18 -15q-9 -8 -21 -8t-21 8l-18 15q-36 31 -61 43.5t-56 12.5q-62 0 -109 -31.5t-72.5 -87t-25.5 -128.5q0 -83 86.5 -186t258.5 -222q8 -6 18 -6t18 6q172 119 258.5 222t86.5 186q0 73 -25.5 128.5t-72.5 87t-109 31.5z" />
    <glyph glyph-name="sousuo" unicode="&#xe8b9;" 
d="M798 144q46 55 71.5 122.5t25.5 139.5q0 110 -55 204q-54 92 -146 145q-94 56 -204 56t-204 -56q-92 -53 -145 -145q-56 -94 -56 -204t56 -204q53 -92 145 -146q94 -55 204 -55q60 0 118 18q13 4 19 15.5t2.5 24t-15.5 19t-24 2.5q-49 -15 -100 -15q-92 0 -172 47
q-77 45 -122 122q-47 79 -47 171.5t47 172.5q45 77 122 122q80 47 172.5 47t171.5 -47q77 -45 122 -122q47 -80 47 -172q0 -67 -25.5 -128t-71.5 -109q-11 -11 -11 -26.5t11 -25.5l150 -150q9 -10 22.5 -9.5t22.5 9.5t9.5 22.5t-9.5 22.5z" />
    <glyph glyph-name="elipsis" unicode="&#xe66e;" 
d="M192 384zM128 384q0 -27 18.5 -45.5t45.5 -18.5t45.5 18.5t18.5 45.5t-18.5 45.5t-45.5 18.5t-45.5 -18.5t-18.5 -45.5zM512 384zM448 384q0 -27 18.5 -45.5t45.5 -18.5t45.5 18.5t18.5 45.5t-18.5 45.5t-45.5 18.5t-45.5 -18.5t-18.5 -45.5zM832 384zM768 384
q0 -27 18.5 -45.5t45.5 -18.5t45.5 18.5t18.5 45.5t-18.5 45.5t-45.5 18.5t-45.5 -18.5t-18.5 -45.5z" />
    <glyph glyph-name="ashbin" unicode="&#xe665;" 
d="M875 655h-203v70q0 31 -22 53t-53 22h-170q-31 0 -53 -22t-22 -53v-70h-203q-12 0 -22 -9.5t-10 -22.5t10 -22.5t22 -9.5h54v-548q0 -31 22 -53t52 -22h470q30 0 52 22t22 53v548h54q12 0 22 9.5t10 22.5t-10 22.5t-22 9.5zM416 725q0 5 3 8t8 3h170q5 0 8 -3t3 -8v-70
h-192v70zM757 43q0 -5 -3 -8t-7 -3h-470q-4 0 -7 3t-3 8v544h490v-544zM427 160q12 0 22 9.5t10 22.5v213q0 13 -10 22.5t-22.5 9.5t-22 -9.5t-9.5 -22.5v-213q0 -13 9.5 -22.5t22.5 -9.5zM597 160q13 0 22.5 9.5t9.5 22.5v213q0 13 -9.5 22.5t-22 9.5t-22.5 -9.5t-10 -22.5
v-213q0 -13 10 -22.5t22 -9.5z" />
    <glyph glyph-name="pin1" unicode="&#xe67b;" 
d="M911 572l-221 222q-15 14 -35.5 15t-35.5 -13l-268 -230l-96 -15q-8 0 -17 -8l-58 -59q-16 -15 -16 -37t16 -36l152 -152l-207 -207q-9 -10 -9 -22.5t10 -22.5t20 -10q15 0 23 9l205 205l153 -153q14 -15 37 -15q20 0 38 15l58 59q9 8 9 16l14 96l228 268q14 19 14 40
t-14 35zM631 267q-6 -6 -6 -15l-15 -94l-46 -46l-334 335l44 44l94 14q4 0 11 4l3 2l270 230l207 -207z" />
    <glyph glyph-name="save1" unicode="&#xe67c;" 
d="M907 597l-182 182q-21 21 -53 21h-501q-31 0 -53 -22t-22 -53v-682q0 -31 22 -53t53 -22h682q31 0 53 22t22 53v503q0 14 -6 28t-15 23zM653 32h-282v215h282v-215zM864 43q0 -5 -3 -8t-8 -3h-140v245q0 13 -9 21.5t-21 8.5h-342q-12 0 -21 -8.5t-9 -21.5v-245h-140
q-5 0 -8 3t-3 8v682q0 5 3 8t8 3h140v-160q0 -13 9 -21.5t21 -8.5h278q12 0 21 8.5t9 21.5t-9 21.5t-21 8.5h-248v130h303l9 -2l179 -179q2 -2 2 -9v-503z" />
    <glyph glyph-name="error" unicode="&#xe62b;" 
d="M512 832q-122 0 -226 -61q-101 -60 -161 -161q-61 -104 -61 -226t61 -226q60 -101 161 -161q104 -61 226 -61t226 61q101 60 161 161q61 104 61 226t-61 226q-60 101 -161 161q-104 61 -226 61zM710 231q10 -10 10 -23t-9.5 -22.5t-22.5 -9.5t-23 10l-153 153l-153 -153
q-10 -10 -23 -10t-22.5 9.5t-9.5 22.5t10 23l153 153l-153 153q-10 10 -10 23t9.5 22.5t22.5 9.5t23 -10l153 -153l153 153q10 10 23 10t22.5 -9.5t9.5 -22.5t-10 -23l-153 -153z" />
    <glyph glyph-name="information" unicode="&#xe7b8;" 
d="M555 512h-86v85h86v-85zM555 171h-86v256h86v-256zM512 811q-116 0 -215 -59q-97 -56 -153 -153q-59 -99 -59 -215t59 -215q56 -97 153 -153q99 -59 215 -59t215 59q97 56 153 153q59 99 59 215t-59 215q-56 97 -153 153q-99 59 -215 59z" />
    <glyph glyph-name="alert-fill" unicode="&#xe664;" 
d="M549 768l406 -704q6 -10 6 -21.5t-5.5 -21.5t-15.5 -15.5t-22 -5.5h-812q-12 0 -22 5.5t-15.5 15.5t-5.5 21.5t6 21.5l406 704q6 10 16 15.5t21 5.5t21 -5.5t16 -15.5zM469 213v-85h86v85h-86zM469 512v-213h86v213h-86z" />
    <glyph glyph-name="math" unicode="&#xe759;" 
d="M926 623h-310q-13 0 -22.5 9.5t-9.5 22.5t9.5 22.5t22.5 9.5h310q13 0 22.5 -9.5t9.5 -22.5t-9.5 -22.5t-22.5 -9.5zM409 623h-311q-13 0 -22.5 9.5t-9.5 22.5t9.5 22.5t22.5 9.5h310q13 0 22.5 -9.5t9.5 -22.5t-9 -22.5t-22 -9.5zM926 210h-310q-13 0 -22.5 9.5
t-9.5 22.5t9.5 22.5t22.5 9.5h310q13 0 22.5 -9.5t9.5 -22.5t-9.5 -22.5t-22.5 -9.5zM926 -49h-310q-13 0 -22.5 9.5t-9.5 22.5t9.5 22.5t22.5 9.5h310q13 0 22.5 -9.5t9.5 -22.5t-9.5 -22.5t-22.5 -9.5zM772 468q-13 0 -22.5 9.5t-9.5 22.5v311q0 13 9.5 22.5t22.5 9.5
t22.5 -9.5t9.5 -22.5v-311q0 -13 -9.5 -22.5t-22.5 -9.5zM98 -75q-13 0 -22.5 9.5t-9.5 23t10 22.5l310 310q9 9 22.5 9t22.5 -9t9 -22.5t-9 -22.5l-310 -310q-9 -10 -23 -10zM409 -75q-13 0 -23 10l-310 310q-9 9 -9 22.5t9 22.5t22.5 9t22.5 -9l310 -310q10 -9 10 -22.5
t-9.5 -23t-22.5 -9.5z" />
    <glyph glyph-name="switch" unicode="&#xe67f;" 
d="M128 373q13 0 22.5 10t9.5 22v171q0 5 3 8t8 3h652l-83 -84q-9 -9 -9 -23t10 -24t23 -10t23 11l145 145q10 9 10 23t-10 24l-145 145q-9 9 -23 9t-23.5 -9.5t-9.5 -23.5t9 -23l94 -94h-663q-31 0 -53 -22t-22 -53v-171q0 -14 9.5 -24t22.5 -10zM907 395q-13 0 -22.5 -10
t-9.5 -22v-171q0 -5 -3 -8t-8 -3h-653l83 84q10 9 10 23t-9.5 23.5t-23.5 9.5t-24 -10l-145 -145q-9 -9 -9 -23t9 -24l145 -145q11 -10 24 -10t23 10t10 24t-10 23l-93 94h663q30 0 52.5 22t22.5 53v171q0 14 -9 24t-23 10z" />
    <glyph glyph-name="link" unicode="&#xe676;" 
d="M862 732q-43 43 -101 58.5t-116.5 1t-102.5 -57.5l-68 -68q-10 -10 -10 -23t9.5 -22.5t22.5 -9.5t22 10l69 68q31 31 73 41.5t84 -1t73 -42.5t42.5 -73.5t1 -85t-41.5 -74.5l-117 -119q-25 -25 -59 -38t-69.5 -10.5t-67 20t-52.5 45.5q-8 11 -20.5 12.5t-23.5 -6.5
t-13 -20.5t6 -23.5q31 -41 74 -65t93 -27h17q45 0 87.5 17.5t74.5 50.5l117 120q41 44 55 103t-1 117.5t-58 101.5zM506 145l-67 -68q-31 -31 -73 -41.5t-84 1t-73 42.5t-42.5 73.5t-1 85t41.5 73.5l117 120q26 25 59.5 38t69 10.5t67 -20t52.5 -45.5q8 -11 20.5 -13t24 6
t13 21t-6.5 24q-31 41 -74 65t-92.5 27t-95.5 -14t-82 -52l-117 -120q-42 -44 -56.5 -103t0.5 -117.5t58 -101.5q33 -33 75 -49.5t86.5 -16.5t86 16.5t74.5 47.5l67 68q9 10 9 23t-9 22q-12 8 -25 8t-22 -10z" />
    <glyph glyph-name="share" unicode="&#xe67d;" 
d="M875 352q-13 0 -22.5 -9.5t-9.5 -22.5v-256q0 -5 -3 -8t-8 -3h-640q-5 0 -8 3t-3 8v640q0 5 3 8t8 3h256q13 0 22.5 9.5t9.5 22t-9.5 22.5t-22.5 10h-256q-30 0 -52.5 -22.5t-22.5 -52.5v-640q0 -30 22.5 -52.5t52.5 -22.5h640q30 0 52.5 22.5t22.5 52.5v256
q0 13 -10 22.5t-22 9.5zM875 779h-235q-13 0 -22.5 -10t-9.5 -22.5t9.5 -22t22.5 -9.5h158l-288 -286q-10 -10 -10 -22.5t9 -22t24 -9.5t24 9l286 286v-158q0 -13 9.5 -22.5t22 -9.5t22.5 9.5t10 22.5v235q0 12 -10 22t-22 10z" />
    <glyph glyph-name="WeatherRainShowersDay" unicode="&#xe717;" 
d="M555 640q65 0 115 -28q47 -25 74.5 -70t33.5 -100h3q31 0 60 -12t51.5 -34t34.5 -51t12 -60t-12 -60t-34.5 -51t-51.5 -34t-60 -12h-26l-66 -112q-7 -11 -19 -14.5t-23 2t-15.5 17t-0.5 23.5l2 4l48 80h-91l-66 -112q-7 -11 -19 -14.5t-23.5 2t-16 17t0.5 23.5l2 4l48 80
h-91l-66 -112q-7 -11 -19 -14.5t-23.5 2t-16 17t0.5 23.5l2 4l48 80h-23q-31 0 -60 12t-51 34t-34 51t-12 60t12 60t34 51t51 34t60 12h4q5 56 33 100.5t74 70.5q50 27 116 27zM555 576q-44 0 -82 -21.5t-61 -59.5t-23 -85q0 -12 -8.5 -19.5t-20.5 -7.5h-29q-27 0 -49.5 -13
t-35.5 -35t-13 -48t13 -48t35.5 -34.5t49.5 -12.5h448q26 0 48.5 12.5t35.5 34.5t13 48t-13 48t-35.5 35t-48.5 13h-30q-11 0 -20 7.5t-9 19.5q0 47 -23 86q-22 37 -60 58.5t-82 21.5zM186 462q5 -11 1 -22.5t-14 -17.5l-4 -2l-40 -16q-11 -5 -23 -0.5t-17.5 16t-2 23.5
t14.5 18l4 2l40 17q12 5 24 -0.5t17 -17.5zM463 669l-7 -3q-34 -12 -62 -32q-32 10 -63.5 0t-52 -36.5t-21.5 -59.5t17 -61q-31 -9 -58 -27q-20 34 -22.5 73t12 75t44.5 62.5t67.5 36.5t76 2.5t69.5 -31.5v1zM125 667l5 -1l39 -17q12 -5 17 -16t1.5 -23t-14.5 -18t-23 -3
l-5 1l-40 17q-11 4 -16 15.5t-1.5 23.5t14.5 18t23 3zM288 795l2 -4l17 -40q4 -11 -0.5 -23t-15.5 -17.5t-23 -2t-19 14.5l-18 43q-5 12 -0.5 23.5t16 17.5t23.5 2t18 -14zM474 808q11 -4 16.5 -15t2.5 -22l-18 -44q-5 -12 -16.5 -17t-23.5 -1t-18 15t-3 23l18 44
q5 12 17.5 17t24.5 0z" />
    <glyph glyph-name="shandian" unicode="&#xe8b6;" 
d="M396 309h-172q-17 0 -26.5 14t-3.5 30l171 448q3 9 11.5 14.5t18.5 5.5h288q17 0 26.5 -14t2.5 -30l-99 -244h187q13 0 22 -8.5t10 -21.5t-8 -23l-459 -522q-10 -12 -25 -11t-24.5 12.5t-5.5 27.5zM417 757l-147 -384h167q16 0 25.5 -12.5t5.5 -27.5l-61 -231l322 367
h-164q-17 0 -26.5 14.5t-2.5 29.5l99 244h-218z" />
    <glyph glyph-name="tishi" unicode="&#xe8ba;" 
d="M544 107h105q5 0 8 3t3 7l-3 95q-1 18 14 28q60 40 94.5 103.5t34.5 136.5q0 78 -39 145q-38 66 -104 104q-67 39 -145 39t-145 -39q-66 -38 -104 -104q-39 -67 -39 -145q0 -73 34.5 -136.5t94.5 -103.5q14 -9 14 -26l4 -97q0 -4 3 -7t7 -3h99v216l-77 82q-9 9 -8.5 22.5
t10 22.5t23 8.5t22.5 -9.5l63 -68l73 69q10 9 23 8.5t22 -10t9 -22.5t-10 -23l-86 -81v-215zM864 480q0 -84 -37.5 -158.5t-105.5 -124.5l3 -77q1 -32 -21 -54.5t-54 -22.5h-268q-30 0 -51.5 21t-22.5 51l-3 81q-68 50 -106 125t-38 159q0 96 48 178q47 79 126 126
q82 48 178 48t178 -48q79 -47 126 -126q48 -82 48 -178zM416 -64q-13 0 -22.5 9.5t-9.5 22.5t9.5 22.5t22.5 9.5h192q13 0 22.5 -9.5t9.5 -22.5t-9.5 -22.5t-22.5 -9.5h-192z" />
    <glyph glyph-name="bianji" unicode="&#xe8ac;" 
d="M863 780q6 6 14 8.5t16.5 0t14.5 -8.5t8.5 -14.5t0 -16.5t-8.5 -14l-453 -453q-9 -9 -22 -9t-22.5 9.5t-9.5 22.5t9 22zM853 448q0 13 9.5 22.5t23 9.5t22.5 -9.5t9 -22.5v-352q0 -32 -15.5 -59t-42.5 -42.5t-59 -15.5h-576q-32 0 -59 15.5t-42.5 42.5t-15.5 59v576
q0 32 15.5 59t42.5 42.5t59 15.5h341q14 0 23 -9t9 -22.5t-9 -23t-23 -9.5h-341q-22 0 -37.5 -15.5t-15.5 -37.5v-576q0 -22 15.5 -37.5t37.5 -15.5h576q22 0 37.5 15.5t15.5 37.5v352z" />
    <glyph glyph-name="fuzhi" unicode="&#xe8b0;" 
d="M395 789h448q31 0 52.5 -21.5t21.5 -52.5v-448q0 -31 -21.5 -53t-52.5 -22h-448q-31 0 -53 22t-22 53v448q0 31 22 52.5t53 21.5zM395 725q-5 0 -8 -3t-3 -7v-448q0 -5 3 -8t8 -3h448q4 0 7 3t3 8v448q0 4 -3 7t-7 3h-448zM640 128q0 13 9.5 22.5t22.5 9.5t22.5 -9.5
t9.5 -22.5v-75q0 -31 -22 -52.5t-53 -21.5h-448q-31 0 -52.5 21.5t-21.5 52.5v448q0 31 21.5 53t52.5 22h75q13 0 22.5 -9.5t9.5 -22.5t-9.5 -22.5t-22.5 -9.5h-75q-4 0 -7 -3t-3 -8v-448q0 -4 3 -7t7 -3h448q5 0 8 3t3 7v75z" />
    <glyph glyph-name="close" unicode="&#xe69a;" 
d="M1024 839l-57 57l-455 -455l-455 455l-57 -57l455 -455l-455 -455l57 -57l455 455l455 -455l57 57l-455 455z" />
    <glyph glyph-name="xiayiye" unicode="&#xe77c;" 
d="M711 366q0 -14 -10 -24l-340 -333q-11 -10 -25.5 -10t-24.5 10.5t-10 25t11 24.5l315 309l-317 340q-9 11 -8.5 25.5t11 24.5t25 9.5t24.5 -11.5l340 -365q10 -11 9 -25z" />
    <glyph glyph-name="shangyiye" unicode="&#xe77d;" 
d="M313 366q0 -14 10 -24l340 -333q11 -10 25.5 -10t24.5 10.5t10 25t-11 24.5l-315 309l317 340q6 7 8 16t-0.5 18t-9.5 15.5t-16.5 8.5t-18.5 -0.5t-15 -9.5l-340 -365q-10 -11 -9 -25z" />
    <glyph glyph-name="loading" unicode="&#xe632;" 
d="M512 -11q-19 0 -32 13t-13 32t13 32t32 13q83 0 154 42q69 40 109 109q42 71 42 154t-42 154q-40 69 -109 109q-71 42 -154 42t-154 -42q-69 -40 -109 -109q-42 -71 -42 -154q0 -19 -13 -32t-32 -13t-32 13t-13 32q0 107 54 199q52 90 142 142q92 54 199 54t199 -54
q90 -52 142 -142q54 -92 54 -199t-54 -199q-52 -90 -142 -142q-92 -54 -199 -54z" />
    <glyph glyph-name="icon_collect" unicode="&#xeb92;" 
d="M385 464h256q13 0 22.5 -9.5t9.5 -22.5t-9.5 -22.5t-22.5 -9.5h-256q-14 0 -23 9.5t-9 22.5t9 22.5t23 9.5zM161 560h-44h-4q-6 -2 -9.5 -7.5t-2.5 -12.5l121 -512q1 -5 5.5 -8.5t9.5 -3.5h551q6 0 10 3.5t6 8.5l120 512v4q0 7 -4.5 11.5t-11.5 4.5h-747zM225 624h576
l-23 46q-5 8 -12.5 13t-16.5 5h-322q-10 0 -18 5l-79 54q-8 5 -18 5h-55q-14 0 -23 -9.5t-9 -22.5v-96zM161 624v96q0 40 28 68t68 28h55q29 0 53 -16l72 -48h312q27 0 50.5 -14.5t35.5 -38.5l37 -75h36q34 0 57 -23.5t23 -56.5q0 -9 -2 -18l-120 -512q-6 -27 -28 -44.5
t-50 -17.5h-551q-27 0 -49 17.5t-28 44.5l-121 512q-8 32 9.5 60t50.5 36q9 2 18 2h44z" />
    <glyph glyph-name="Ioniconsmdmoon" unicode="&#xeecf;" 
d="M390 646q0 77 30 148q-91 -22 -163.5 -80.5t-112.5 -141.5q-42 -86 -42 -182q0 -113 57 -210q55 -94 149 -149q97 -57 210 -57q96 0 182 42q83 40 141.5 112.5t80.5 163.5q-71 -30 -148 -30q-104 0 -194 52q-87 51 -138 138q-52 90 -52 194z" />
    <glyph glyph-name="white-balance-sunny" unicode="&#xe939;" 
d="M151 105l61 -60l76 76l-60 61zM469 -62h86v126h-86v-126zM512 661q-70 0 -128.5 -34.5t-93 -93t-34.5 -128t34.5 -128.5t93 -93.5t128.5 -34.5t128.5 34.5t93 93.5t34.5 128.5t-34.5 128.5t-93.5 93t-128 34zM853 363h128v85h-128v-85zM736 121l76 -76l61 60l-77 77z
M873 706l-61 60l-76 -77l60 -60zM555 873h-86v-126h86v126zM171 448h-128v-85h128v85zM288 689l-76 77l-61 -60l77 -77z" />
    <glyph glyph-name="folder-image" unicode="&#xe74c;" 
d="M213 171l192 256l150 -192l106 128l150 -192h-598zM853 640h-341l-85 85h-256q-36 0 -61 -25t-25 -60v-512q0 -35 25 -60t61 -25h682q36 0 61 25t25 60v427q0 35 -25 60t-61 25z" />
    <glyph glyph-name="folder-google-drive" unicode="&#xe74a;" 
d="M587 512h102l122 -213h-126l-109 193zM781 171h-237l60 106h218l11 -19zM491 171l-47 91l121 212l64 -114l-106 -189h-32zM853 640h-341l-85 85h-256q-36 0 -61 -24.5t-25 -60.5v-512q0 -35 25 -60t61 -25h682q36 0 61 25t25 60v427q0 35 -25 60t-61 25z" />
    <glyph glyph-name="cloud" unicode="&#xe6b9;" 
d="M826 468q-15 74 -60.5 132.5t-112 91.5t-141.5 33q-91 0 -168 -47q-75 -47 -116 -125q-64 -7 -116 -42.5t-82 -91.5t-30 -120q0 -70 34.5 -128.5t93 -93t128.5 -34.5h555q42 0 81.5 16t69.5 46t46 69.5t16 81.5q0 55 -26.5 102.5t-72 76.5t-99.5 33z" />
    <glyph glyph-name="email" unicode="&#xe712;" 
d="M853 555l-341 -214l-341 214v85l341 -213l341 213v-85zM853 725h-682q-36 0 -61 -24.5t-25 -60.5v-512q0 -35 25 -60t61 -25h682q36 0 61 25t25 60v512q0 35 -25 60t-61 25z" />
    <glyph glyph-name="forum" unicode="&#xe774;" 
d="M725 384v384q0 18 -12.5 30.5t-29.5 12.5h-555q-18 0 -30.5 -12.5t-12.5 -30.5v-597l171 170h427q17 0 29.5 12.5t12.5 30.5zM896 640h-85v-384h-555v-85q0 -18 12.5 -30.5t30.5 -12.5h469l171 -171v640q0 18 -12.5 30.5t-30.5 12.5z" />
    <glyph glyph-name="github-box" unicode="&#xe780;" 
d="M171 811h682q36 0 61 -25t25 -61v-682q0 -36 -25 -61t-61 -25h-219q-15 4 -15 43v117q0 28 -9 49q-8 19 -21 30q56 6 93 23q48 21 73 62q29 48 29 124q0 68 -44 116q7 17 9 39q2 37 -13 74l-7 1q-9 0 -21 -3q-17 -3 -37 -12q-24 -11 -52 -30q-51 14 -107 14t-107 -14
q-28 19 -52 30q-20 9 -37 12q-12 3 -21 3l-7 -1q-15 -37 -13 -74q2 -22 9 -39q-44 -48 -44 -116q0 -76 29 -124q25 -41 72 -63q38 -16 93 -23q-22 -19 -27 -57q-30 -13 -57 -10q-43 3 -67 46l-8 10q-9 13 -22 21q-16 11 -35 13l-10 -1q-9 -2 -10 -7.5t15 -17.5l9 -5
q10 -8 19 -19q12 -17 21 -39l4 -8q5 -10 12 -19q11 -13 26 -21q18 -10 41 -13q27 -3 60 4v-72q0 -39 -15 -43h-219q-36 0 -61 25t-25 61v682q0 36 25 61t61 25z" />
    <glyph glyph-name="image" unicode="&#xe7ac;" 
d="M363 320l106 -128l150 192l192 -256h-598zM896 85v598q0 35 -25 60t-60 25h-598q-35 0 -60 -25t-25 -60v-598q0 -35 25 -60t60 -25h598q35 0 60 25t25 60z" />
    <glyph glyph-name="map" unicode="&#xe7e1;" 
d="M640 85l-256 90v508l256 -90v-508zM875 768h-7l-228 -90l-256 90l-241 -81q-7 -2 -11 -7.5t-4 -13.5v-645q0 -9 6 -15t15 -6q5 0 7 1l228 89l256 -90l241 81q15 7 15 21v645q0 9 -6 15t-15 6z" />
    <glyph glyph-name="music-box" unicode="&#xe804;" 
d="M683 512h-128v-235q0 -29 -14.5 -53.5t-39 -38.5t-53.5 -14t-53.5 14t-39 38.5t-14.5 53.5q0 22 8.5 41.5t23.5 34.5t34.5 23t40.5 8q35 0 64 -21v234h171v-85zM811 768h-598q-35 0 -60 -25t-25 -60v-598q0 -35 25 -60t60 -25h598q35 0 60 25t25 60v598q0 35 -25 60
t-60 25z" />
    <glyph glyph-name="onedrive" unicode="&#xe829;" 
d="M857 314q35 -5 58.5 -32.5t23.5 -63.5q0 -28 -14.5 -51.5t-39.5 -35.5l-7 -3h-487q-31 0 -56.5 15t-40.5 41t-15 56.5t15 56.5t41 41t57 15h9v8q0 39 19 71t51 51t71.5 19t73 -20.5t51.5 -54.5q32 19 66.5 19t62.5 -16.5t44.5 -45t16.5 -61.5v-9zM376 377q-34 -4 -62 -23
t-44 -49t-16 -64q0 -42 23 -78h-75q-32 0 -58.5 15.5t-42.5 42.5t-16 58t14.5 56.5t39.5 41.5t54 19l-3 28q0 36 18 66t48 47.5t66 17.5q40 0 73 -22q23 46 67 73.5t96 27.5q46 0 85.5 -22t64.5 -59t30 -82h-4q-30 0 -58 -12q-23 32 -59 50t-77 18t-77 -19.5t-59.5 -54
t-27.5 -76.5z" />
    <glyph glyph-name="shopping" unicode="&#xe89d;" 
d="M512 341q-42 0 -81.5 16.5t-69.5 46.5t-46 69t-16 82h85q0 -35 17 -64.5t46.5 -46.5t64.5 -17q25 0 49 9.5t42 27.5t27.5 41.5t9.5 49.5h85q0 -43 -16 -82t-46 -69t-69.5 -46.5t-81.5 -16.5zM512 768q35 0 64.5 -17t46.5 -46.5t17 -64.5h-256q0 35 17 64.5t46.5 46.5
t64.5 17zM811 640h-86q0 42 -16 81.5t-46 69.5t-69.5 46t-81.5 16t-81.5 -16t-69.5 -46t-46 -69.5t-16 -81.5h-86q-35 0 -60 -25t-25 -60v-512q0 -36 25 -61t60 -25h598q35 0 60 25t25 61v512q0 35 -25 60t-60 25z" />
    <glyph glyph-name="translate" unicode="&#xe8f6;" 
d="M549 253l-108 107l1 1q110 122 158 279h125v85h-298v86h-86v-86h-298v-85h476q-44 -127 -135 -228q-59 65 -99 143h-85q48 -106 127 -195l-217 -214l61 -61l213 214l133 -133zM789 469h-85l-192 -512h85l48 128h203l48 -128h85zM678 171l69 184l69 -184h-138z" />
    <glyph glyph-name="youtube-play" unicode="&#xe948;" 
d="M427 192v384l256 -192zM853 708q-19 7 -121 12q-104 5 -220 5t-220 -5q-102 -5 -121 -11q-46 -15 -68 -113q-18 -81 -18 -212t18 -212q22 -98 68 -113q19 -6 121.5 -11t219.5 -5t219.5 5t121.5 11q46 15 68 113q18 81 18 212t-18 212q-22 97 -68 112z" />
    <glyph glyph-name="moon" unicode="&#xe866;" 
d="M754 236q-117 0 -203.5 45t-133 128.5t-46.5 196.5q0 48 7.5 89t19.5 65q7 14 7 26t-9 21.5t-22 9.5q-8 0 -24 -5q-78 -32 -139.5 -95t-94.5 -145q-35 -83 -35 -172q0 -128 58 -232q58 -101 159 -159q103 -58 232 -58q139 0 247 68.5t160 189.5q6 14 6 25.5t-9 20
t-19.5 8.5t-21.5 -4q-27 -11 -64 -17.5t-75 -6.5v1zM148 403q0 100 48.5 189t132.5 141q-22 -62 -22 -133q0 -133 52 -229t150.5 -147t234.5 -51q67 0 117 17q-49 -80 -137 -126.5t-191 -46.5q-110 0 -199 51q-87 49 -136 136q-50 89 -50 199z" />
    <glyph glyph-name="Cloud" unicode="&#xeabf;" 
d="M809 503q-19 71 -64.5 125.5t-110.5 84t-139 29.5q-87 0 -163 -44q-73 -44 -117 -117q-44 -76 -44 -163v-17q-47 -3 -86.5 -29t-62 -68t-22.5 -91.5t25.5 -92.5t68.5 -68.5t94 -25.5h597q66 0 120.5 31.5t86.5 86.5t32 121q0 60 -28 112.5t-77 86t-110 39.5z" />
    <glyph glyph-name="save" unicode="&#xe996;" 
d="M871 623l-120 120q-26 25 -61 25h-477q-35 0 -60 -25t-25 -60v-598q0 -35 25 -60t60 -25h598q35 0 60 25t25 60v477q0 35 -25 61zM384 619v64h256v-64q0 -9 -6 -15.5t-15 -6.5h-214q-9 0 -15 6.5t-6 15.5zM725 85h-426v320q0 9 6 15.5t15 6.5h384q9 0 15 -6.5t6 -15.5
v-320zM619 256h-214q-9 0 -15 -6t-6 -15v-43q0 -9 6 -15t15 -6h214q9 0 15 6t6 15v43q0 9 -6 15t-15 6z" />
    <glyph glyph-name="cloud-off-line" unicode="&#xe621;" 
d="M150 806l815 -814l-61 -61l-86 86q-45 -17 -93 -17h-426q-62 0 -116 27.5t-90 76t-46.5 109.5t7.5 118.5t60 101.5t100 65q-3 56 15 109l-139 139zM299 512v-10l3 -64l-60 -21q-39 -14 -66.5 -43t-39.5 -67.5t-5 -79t31 -73t60 -51t77 -18.5h426q12 0 24 2l-449 449
q-1 -12 -1 -24zM512 811q61 0 117.5 -24.5t99 -68.5t63.5 -101.5t18 -118.5q54 -19 94.5 -59t60.5 -93.5t15.5 -110.5t-33.5 -107l-63 64q19 48 8.5 98t-46.5 86.5t-86.5 47t-97.5 -9.5l-64 64q59 34 127 34q0 60 -31 111t-84 78.5t-112.5 23.5t-108.5 -38l-61 61
q40 30 87 46.5t97 16.5z" />
    <glyph glyph-name="icon_delete" unicode="&#xeb95;" 
d="M800 579q2 14 12 22t23.5 6.5t21.5 -11.5t7 -23l-58 -551q-4 -37 -31.5 -61.5t-64.5 -24.5h-396q-37 0 -64.5 24.5t-31.5 61.5l-58 551q-1 13 7 23t21.5 11.5t23.5 -6.5t12 -22l58 -550q1 -13 10 -21t22 -8h396q13 0 22 8t10 21zM608 480q13 0 22.5 -9.5t9.5 -22.5v-224
q0 -13 -9.5 -22.5t-22.5 -9.5t-22.5 9.5t-9.5 22.5v224q0 13 9.5 22.5t22.5 9.5zM416 480q13 0 22.5 -9.5t9.5 -22.5v-224q0 -13 -9.5 -22.5t-22.5 -9.5t-22.5 9.5t-9.5 22.5v224q0 13 9.5 22.5t22.5 9.5zM384 704h256v48q0 7 -4.5 11.5t-11.5 4.5h-224q-7 0 -11.5 -4.5
t-4.5 -11.5v-48zM320 704v64q0 26 18.5 45t45.5 19h256q26 0 45 -19t19 -45v-64h224q13 0 22.5 -9.5t9.5 -22.5t-9.5 -22.5t-22.5 -9.5h-832q-13 0 -22.5 9.5t-9.5 22.5t9.5 22.5t22.5 9.5h224z" />
    <glyph glyph-name="cut" unicode="&#xe74b;" 
d="M786 288q-52 0 -95 -28.5t-64 -73.5l-72 144l241 455q6 12 2.5 24.5t-15.5 18.5t-24.5 2.5t-18.5 -15.5l-220 -414l-203 413q-6 12 -18.5 16.5t-24.5 -1.5t-16.5 -18.5t1.5 -24.5l225 -455l-81 -151q-20 48 -64 78t-98 30q-48 0 -88.5 -24t-64 -64.5t-23.5 -88t23.5 -88
t64 -64t88.5 -23.5q53 0 96.5 28.5t64.5 75.5l116 221l101 -205q18 -53 64 -86.5t103 -33.5q48 0 88.5 23.5t64 64t23.5 88t-23.5 88t-64 64.5t-88.5 24zM241 0q-30 0 -56 15t-41 40.5t-15 56t15 56t41 41t56 15.5t56 -15.5t41 -41t15 -56t-15 -56t-41 -40.5t-56 -15zM786 0
q-27 0 -51 12.5t-40 34.5l-15 31q-6 18 -6 34q0 30 15 55.5t41 41t56 15.5t56 -15.5t41 -41t15 -56t-15 -56t-40.5 -40.5t-56.5 -15z" />
    <glyph glyph-name="paste" unicode="&#xe753;" 
d="M704 768h-128v64q0 26 -19 45t-45 19h-128q-26 0 -45 -19t-19 -45v-64h-128v-128h512v128zM512 768h-128v64h128v-64zM832 576v160q0 13 -9.5 22.5t-22.5 9.5h-64v-64h32v-128h-192l-192 -192v-256h-256v576h32v64h-64q-13 0 -22.5 -9.5t-9.5 -22.5v-640q0 -13 9.5 -22.5
t22.5 -9.5h288v-192h640v704h-192zM576 486v-102h-102zM960 -64h-512v384h192v192h320v-576z" />
    <glyph glyph-name="copy" unicode="&#xe7e4;" 
d="M640 640v256h-448l-192 -192v-576h384v-256h640v768h-384zM192 806v-102h-102zM64 192v448h192v192h320v-192l-192 -192v-256h-320zM576 550v-102h-102zM960 -64h-512v448h192v192h320v-640z" />
    <glyph glyph-name="icon_discovery" unicode="&#xeb94;" 
d="M769 528q0 -13 -9.5 -22.5t-23 -9.5t-22.5 9.5t-9 22.5q0 35 -17.5 64.5t-47 46.5t-63.5 17q-14 0 -23 9.5t-9 23t9 22.5t23 9q52 0 96 -25.5t70 -70t26 -96.5zM385 -48h256q-23 -29 -56.5 -46.5t-72 -17.5t-72 17.5t-55.5 46.5zM385 48h256q13 0 22.5 -9t9.5 -22.5
t-9.5 -23t-22.5 -9.5h-256q-14 0 -23 9.5t-9 23t9 22.5t23 9zM337 229q22 -15 27 -41l9 -44h279l9 44q5 26 27 41q68 44 106.5 115t38.5 152q0 87 -44 162q-42 72 -115 115q-74 43 -161 43t-162 -43q-72 -43 -115 -115q-43 -75 -43 -162q0 -81 38.5 -152t105.5 -115z
M302 175q-80 53 -126 136q-47 86 -47 185q0 105 52 194q51 87 138 138q89 52 193.5 52t193.5 -52q87 -51 138 -138q53 -89 53 -194q0 -99 -48 -185q-46 -83 -125 -136l-9 -43q-5 -23 -22.5 -37.5t-40.5 -14.5h-279q-23 0 -40.5 14.5t-22.5 37.5z" />
    <glyph glyph-name="baidu1" unicode="&#xe651;" 
d="M184 356q50 11 74 52q18 31 21 78q1 24 -2 56v1q-3 24 -20 51q-19 30 -46 48q-31 20 -64 17q-40 -3 -67 -39q-19 -25 -29 -65q-6 -19 -7 -34v0q-7 -33 6 -74q15 -47 46 -72q37 -30 88 -19zM391 580q30 0 55.5 21t40.5 57.5t15 79.5t-15 79t-40.5 57.5t-55.5 21.5
t-55.5 -21t-40.5 -57.5t-15 -79.5t15 -79.5t40.5 -57.5t55.5 -21zM656 569q38 -5 72 18q29 20 49 57q18 33 24 69q5 32 -8 66t-38.5 59t-53.5 31.5t-61 -17.5q-29 -21 -51.5 -57t-25.5 -66q-7 -64 12 -104q23 -49 80 -56h1zM981 457q0 21 -10 48q-14 33 -38 54
q-31 26 -76 26q-65 0 -92 -53q-19 -37 -19 -101q0 -41 6 -65q9 -37 34 -56q31 -24 87 -23q51 2 79 34q21 25 27 67q4 24 3 61v8h-1zM857 179q-17 14 -35 29q-43 37 -81 75q-52 53 -85 100q-36 56 -81 80q-41 21 -85 16q-39 -5 -74 -29q-33 -22 -52 -53q-23 -39 -60 -77
q-20 -22 -53 -50q-16 -14 -18.5 -16.5t-13.5 -11.5q-32 -23 -51 -43q-34 -35 -50 -73q-20 -50 -8 -104q14 -63 52 -99q26 -25 62 -35q17 -5 30 -5l24 -1q32 -1 65 2q46 3 88 13q60 13 125 5q32 -4 52 -11l24 -6q29 -7 59 -11q40 -4 75 0q43 5 73 24q36 22 53 62
q27 64 18 120q-6 41 -30 73q-12 17 -23 25v0v1z" />
    <glyph glyph-name="google" unicode="&#xe624;" 
d="M522 457v-175h291q-7 -46 -36 -91q-35 -57 -92 -90q-69 -40 -163 -40q-86 0 -160 44q-72 43 -114 116q-43 75 -43 163t43 163q42 73 114 116q74 44 160 44q68 0 125 -26q45 -19 79 -53l139 134q-69 64 -153 98q-89 36 -190 36q-104 0 -199 -40q-92 -39 -163 -110
t-110 -163q-40 -95 -40 -199t40 -199q39 -92 110 -163t163 -110q95 -40 199 -40q146 0 259 65q110 63 171.5 176.5t61.5 258.5q0 38 -8 85h-484z" />
    <glyph glyph-name="bing" unicode="&#xe608;" 
d="M111 33l554 301l-153 74l-94 214l495 -161v-241l-575 -348l-227 161v857l229 -79v-574z" />
    <glyph glyph-name="icon_compile" unicode="&#xeb93;" 
d="M256 224h160q13 0 22.5 -9.5t9.5 -22.5t-9.5 -22.5t-22.5 -9.5h-160q-13 0 -22.5 9.5t-9.5 22.5t9.5 22.5t22.5 9.5zM951 777l-272 -271q-9 -10 -22.5 -10t-23 9.5t-9.5 23t10 22.5l271 272q10 9 23 9t22.5 -9.5t9.5 -22.5t-9 -23zM256 416h416q13 0 22.5 -9.5t9.5 -22.5
t-9.5 -22.5t-22.5 -9.5h-416q-13 0 -22.5 9.5t-9.5 22.5t9.5 22.5t22.5 9.5zM256 608h224q13 0 22.5 -9.5t9.5 -22.5t-9.5 -22.5t-22.5 -9.5h-224q-13 0 -22.5 9.5t-9.5 22.5t9.5 22.5t22.5 9.5zM896 448q0 13 9.5 22.5t22.5 9.5t22.5 -9.5t9.5 -22.5v-416q0 -40 -28 -68
t-68 -28h-704q-40 0 -68 28t-28 68v704q0 40 28 68t68 28h416q13 0 22.5 -9.5t9.5 -22.5t-9.5 -22.5t-22.5 -9.5h-416q-13 0 -22.5 -9.5t-9.5 -22.5v-704q0 -13 9.5 -22.5t22.5 -9.5h704q13 0 22.5 9.5t9.5 22.5v416z" />
    <glyph glyph-name="icon_link" unicode="&#xeb97;" 
d="M829 339q-10 -10 -23 -10t-22.5 9.5t-9.5 23t10 22.5l67 68q37 37 50 86.5t0 99t-49.5 86t-86 49.5t-99 0t-86.5 -50l-159 -158q-36 -37 -49 -86.5t0 -99t49 -86.5q10 -9 10 -22t-9.5 -22.5t-22.5 -9.5t-23 9q-49 49 -66 115t0 132t66 115l159 159q49 49 115 66t131.5 0
t115 -66.5t66.5 -115t0 -131.5t-66 -115zM648 520q49 -49 66 -115t0 -132t-66 -115l-159 -159q-49 -49 -115 -66t-131.5 0t-115 66.5t-66.5 115t0 131.5t66 115l46 46q9 9 22 9t22.5 -9.5t9.5 -22.5t-9 -23l-45 -45q-37 -37 -50 -86.5t0 -99t49.5 -86t86 -49.5t99 0t86.5 50
l159 158q36 37 49 86.5t0 99t-49 86.5q-10 9 -10 22t9.5 22.5t22.5 9.5t23 -9z" />
    <glyph glyph-name="icon_photo" unicode="&#xeb9a;" 
d="M288 448q-26 0 -45 18.5t-19 45.5t19 45.5t45.5 18.5t45 -18.5t18.5 -45.5t-18.5 -45.5t-45.5 -18.5zM928 146l-259 258l-296 -268q-10 -8 -22.5 -8t-21.5 9l-109 108l-124 -100v-81q0 -13 9.5 -22.5t22.5 -9.5h768q13 0 22.5 9.5t9.5 22.5v82zM928 236v468
q0 13 -9.5 22.5t-22.5 9.5h-768q-13 0 -22.5 -9.5t-9.5 -22.5v-477l84 68q19 15 43.5 14t42.5 -19l86 -86l274 247q19 18 44.5 17t43.5 -19zM32 160v0v544q0 40 28 68t68 28h768q40 0 68 -28t28 -68v-640q0 -40 -28 -68t-68 -28h-768q-40 0 -68 28t-28 68v96z" />
    <glyph glyph-name="user" unicode="&#xe607;" 
d="M512 834q-122 0 -227 -62q-102 -59 -161 -161q-62 -105 -62 -227t62 -227q59 -102 161 -161q105 -62 227 -62t227 62q102 59 161 161q62 105 62 227t-62 227q-59 102 -161 161q-105 62 -227 62zM512 699q37 0 68 -18t49 -49t18 -68t-18 -68t-49 -49t-68 -18t-68 18
t-49 49t-18 68q0 27 10 51.5t29 43.5t44 29.5t52 10.5zM512 59q-81 0 -153 38.5t-117 106.5q0 41 50 76q42 28 110 46q61 16 110 16t110 -16q67 -18 109 -46q50 -35 51 -76q-45 -68 -117 -106t-153 -38v-1z" />
    <glyph glyph-name="check" unicode="&#xe622;" 
d="M888 598q-10 9 -23 8.5t-22 -10.5l-427 -454l-233 230q-10 9 -23 9t-22.5 -9.5t-9.5 -23t10 -22.5l257 -253q2 -2 5 -4l5 -3q6 -2 12 -2t12 3l5 3q4 2 6 4l449 479q9 9 9 22.5t-10 22.5z" />
    <glyph glyph-name="pin" unicode="&#xe849;" 
d="M683 384v341h42v86h-426v-86h42v-341l-85 -85v-86h222v-256h68v256h222v86z" />
    <glyph glyph-name="delete" unicode="&#xe614;" 
d="M192 727h640v-87h-640v87zM704 663q0 -15 -34 -20q-21 -3 -40 -2h-268q-24 -1 -30 0q-8 1 -10 5t-2 17v18q0 36 17 61.5t41 25.5h268q24 0 41 -25.5t17 -61.5v-18zM689 576h-354h-79v-512q0 -31 23 -48q21 -16 56 -16h354q34 0 55 16q24 17 24 48v512h-79zM448 128h-64
v320h64v-320zM640 128h-64v320h64v-320z" />
    <glyph glyph-name="settings" unicode="&#xe673;" 
d="M512 234q40 0 74.5 20.5t55 55t20.5 74.5t-20.5 74.5t-55 55t-74.5 20.5t-74.5 -20.5t-55 -55t-20.5 -74.5t20.5 -74.5t55 -55t74.5 -20.5zM830 342l90 -70q6 -5 7 -13t-3 -15l-86 -148q-4 -7 -11 -9t-15 1l-106 42q-42 -30 -72 -42l-16 -112q-2 -8 -7.5 -13t-12.5 -5
h-172q-7 0 -12.5 5t-7.5 13l-16 112q-39 15 -72 42l-106 -42q-8 -3 -15 -1t-11 9l-86 148q-4 7 -3 15t7 13l90 70q-2 14 -2 42t2 42l-90 70q-6 5 -7 13t3 15l86 148q4 7 11 9t15 -1l106 -42q42 30 72 42l16 112q2 8 7.5 13t12.5 5h172q7 0 12.5 -5t7.5 -13l16 -112
q39 -15 72 -42l106 42q8 3 15 1t11 -9l86 -148q4 -7 3 -15t-7 -13l-90 -70q2 -14 2 -42t-2 -42z" />
    <glyph glyph-name="settings-larger" unicode="&#xeed0;" 
d="M512 206q48 0 89 24t65 65t24 89t-24 89t-65 65t-89 24t-89 -24t-65 -65t-24 -89t24 -89t65 -65t89 -24zM890 334l107 -83q7 -6 8.5 -15.5t-3.5 -17.5l-102 -176q-6 -9 -14 -11.5t-17 1.5l-126 50q-50 -36 -86 -50l-19 -133q-2 -9 -8.5 -15.5t-15.5 -6.5h-204
q-9 0 -15.5 6.5t-8.5 15.5l-19 133q-46 18 -86 50l-126 -50q-9 -4 -17 -1.5t-14 11.5l-102 176q-5 8 -3.5 17.5t8.5 15.5l107 83q-3 17 -3 50v0q0 33 3 50l-107 83q-7 6 -8.5 15.5t3.5 17.5l102 176q6 9 14 11.5t17 -1.5l126 -50q50 36 86 50l19 133q2 9 8.5 15.5t15.5 6.5
h204q9 0 15.5 -6.5t8.5 -15.5l19 -133q46 -18 86 -50l126 50q9 4 17 1.5t14 -11.5l102 -176q5 -8 3.5 -17.5t-8.5 -15.5l-107 -83q3 -17 3 -50v0q0 -33 -3 -50z" />
    <glyph glyph-name="2202xin" unicode="&#xe64f;" 
d="M735 768q-48 0 -93 -19.5t-79 -53t-51 -76.5q-16 43 -50.5 76.5t-79.5 53t-92 19.5q-62 0 -113 -29.5t-80.5 -80t-29.5 -113.5q0 -66 37 -133q33 -59 103 -135q44 -47 156 -155q96 -92 149 -146q53 54 150 146q111 108 155 155q71 76 103 135q37 67 37 133
q0 63 -29 113.5t-80 80t-113 29.5z" />
  </font>
</defs>
</svg>
